# xmcd CD database file
#
# Track frame offsets:
#	150
#	21395
#	36437
#	52500
#	65885
#	79880
#	97252
#	112005
#	127890
#	141585
#	160672
#	176737
#
# Disc length: 2606 seconds
#
# Revision: 0
# Processed by: cddbd v1.4PL0 Copyright (c) Steve Scherf et al.
# Submitted via: CDex 1.50beta10
#
DISCID=ad0a2c0c
DTITLE=Niel Diamond - Very Best of
DYEAR=1998
DGENRE=Country
TTITLE0=Holly Holy
TTITLE1=Sweet Caroline
TTITLE2=I Am...I Said
TTITLE3=Cracklin' Rosie
TTITLE4=Walk On Water
TTITLE5=Play Me
TTITLE6=Song Sung Blue
TTITLE7=Until It's Time For You To Go
TTITLE8=Stones
TTITLE9=Soolaimon
TTITLE10=The Last Thing On My Mind
TTITLE11=He Ain't Heavy...He's My Brother
EXTD=YEAR: 1998
EXTT0=
EXTT1=
EXTT2=
EXTT3=
EXTT4=
EXTT5=
EXTT6=
EXTT7=
EXTT8=
EXTT9=
EXTT10=
EXTT11=
PLAYORDER=
